<svg width="40" height="52" viewBox="0 0 40 52" fill="none" xmlns="http://www.w3.org/2000/svg">
<path d="M14.1875 28.9714L16.375 21.9143L10.625 17.3333H17.75L20 10.4L22.25 17.3333H29.375L23.5625 21.9143L25.75 28.9714L20 24.5762L14.1875 28.9714ZM5 52V32.8714C3.41667 31.1381 2.1875 29.1571 1.3125 26.9286C0.4375 24.7 0 22.327 0 19.8095C0 14.2794 1.9375 9.59524 5.8125 5.75714C9.6875 1.91905 14.4167 0 20 0C25.5833 0 30.3125 1.91905 34.1875 5.75714C38.0625 9.59524 40 14.2794 40 19.8095C40 22.327 39.5625 24.7 38.6875 26.9286C37.8125 29.1571 36.5833 31.1381 35 32.8714V52L20 47.0476L5 52ZM30.625 30.3333C33.5417 27.4444 35 23.9365 35 19.8095C35 15.6825 33.5417 12.1746 30.625 9.28572C27.7083 6.39683 24.1667 4.95238 20 4.95238C15.8333 4.95238 12.2917 6.39683 9.375 9.28572C6.45833 12.1746 5 15.6825 5 19.8095C5 23.9365 6.45833 27.4444 9.375 30.3333C12.2917 33.2222 15.8333 34.6667 20 34.6667C24.1667 34.6667 27.7083 33.2222 30.625 30.3333Z" fill="#0A3A86"/>
</svg>
