<svg width="52" height="52" viewBox="0 0 52 52" fill="none" xmlns="http://www.w3.org/2000/svg">
<path d="M26 0C40.3598 0 52 11.6402 52 26C52 40.3598 40.3598 52 26 52C11.6402 52 0 40.3598 0 26C0 11.6402 11.6402 0 26 0ZM26 10.4C25.3104 10.4 24.6491 10.6739 24.1615 11.1615C23.6739 11.6491 23.4 12.3104 23.4 13V26C23.4001 26.6895 23.6742 27.3507 24.1618 27.8382L31.9618 35.6382C32.4522 36.1118 33.1089 36.3739 33.7906 36.368C34.4724 36.362 35.1245 36.0886 35.6065 35.6065C36.0886 35.1245 36.362 34.4724 36.368 33.7906C36.3739 33.1089 36.1118 32.4522 35.6382 31.9618L28.6 24.9236V13C28.6 12.3104 28.3261 11.6491 27.8385 11.1615C27.3509 10.6739 26.6896 10.4 26 10.4Z" fill="#0A3A86"/>
</svg>
