<svg width="52" height="52" viewBox="0 0 52 52" fill="none" xmlns="http://www.w3.org/2000/svg">
<path d="M26 52C22.4033 52 19.0233 51.3171 15.86 49.9512C12.6967 48.5853 9.945 46.7333 7.605 44.395C5.265 42.0567 3.41293 39.3051 2.0488 36.14C0.68467 32.9749 0.00173662 29.5949 3.29114e-06 26C-0.00173004 22.4051 0.681203 19.0251 2.0488 15.86C3.4164 12.6949 5.26847 9.94326 7.605 7.605C9.94153 5.26673 12.6932 3.41467 15.86 2.0488C19.0268 0.682933 22.4068 0 26 0C29.5932 0 32.9732 0.682933 36.14 2.0488C39.3068 3.41467 42.0584 5.26673 44.395 7.605C46.7315 9.94326 48.5844 12.6949 49.9538 15.86C51.3231 19.0251 52.0052 22.4051 52 26C51.9948 29.5949 51.3118 32.9749 49.9512 36.14C48.5905 39.3051 46.7384 42.0567 44.395 44.395C42.0515 46.7333 39.2998 48.5862 36.14 49.9538C32.9801 51.3214 29.6001 52.0035 26 52ZM26 46.8C31.8066 46.8 36.725 44.785 40.755 40.755C44.785 36.725 46.8 31.8067 46.8 26C46.8 25.6967 46.7896 25.3821 46.7688 25.0562C46.748 24.7303 46.7367 24.4599 46.735 24.245C46.5183 25.5017 45.9333 26.5417 44.98 27.365C44.0266 28.1883 42.9 28.6 41.6 28.6H36.4C34.97 28.6 33.7462 28.0913 32.7288 27.0738C31.7113 26.0563 31.2017 24.8317 31.2 23.4V20.8H20.8V15.6C20.8 14.17 21.3096 12.9463 22.3288 11.9288C23.348 10.9113 24.5717 10.4017 26 10.4H28.6C28.6 9.40333 28.8712 8.52626 29.4138 7.7688C29.9563 7.01133 30.6167 6.3934 31.395 5.915C30.5283 5.69833 29.6512 5.525 28.7638 5.395C27.8763 5.265 26.9551 5.2 26 5.2C20.1933 5.2 15.275 7.215 11.245 11.245C7.215 15.275 5.2 20.1933 5.2 26H18.2C21.06 26 23.5083 27.0183 25.545 29.055C27.5817 31.0917 28.6 33.54 28.6 36.4V39H20.8V46.15C21.6667 46.3667 22.5229 46.5296 23.3688 46.6388C24.2147 46.748 25.0917 46.8017 26 46.8Z" fill="#0A3A86"/>
</svg>
