<svg width="83" height="39" viewBox="0 0 83 39" fill="none" xmlns="http://www.w3.org/2000/svg">
<path d="M0 9.10873V0.785237H14.641V39H5.23269V9.10873H0Z" fill="#0A3A86"/>
<path d="M20.8238 19.3691C20.8238 13.3664 21.9866 8.63758 24.3123 5.18255C26.6731 1.72752 30.4611 0 35.6762 0C40.8913 0 44.6616 1.72752 46.9873 5.18255C49.3481 8.63758 50.5286 13.3664 50.5286 19.3691C50.5286 25.4416 49.3481 30.2054 46.9873 33.6604C44.6616 37.1154 40.8913 38.843 35.6762 38.843C30.4611 38.843 26.6731 37.1154 24.3123 33.6604C21.9866 30.2054 20.8238 25.4416 20.8238 19.3691ZM41.6489 19.3691C41.6489 15.8443 41.2613 13.1396 40.486 11.255C39.7108 9.33557 38.1075 8.37584 35.6762 8.37584C33.2448 8.37584 31.6416 9.33557 30.8664 11.255C30.0911 13.1396 29.7035 15.8443 29.7035 19.3691C29.7035 21.7423 29.8445 23.7141 30.1264 25.2846C30.4083 26.8201 30.9721 28.0765 31.8177 29.0537C32.6987 29.996 33.9848 30.4671 35.6762 30.4671C37.3676 30.4671 38.6361 29.996 39.4818 29.0537C40.3627 28.0765 40.9441 26.8201 41.226 25.2846C41.5079 23.7141 41.6489 21.7423 41.6489 19.3691Z" fill="#0A3A86"/>
<path d="M83 24.7087H73.8031V34.0268H65.2406V24.7087H56.0437V16.6993H65.2406V7.32886H73.8031V16.6993H83V24.7087Z" fill="#0A3A86"/>
</svg>
